<svg xmlns="http://www.w3.org/2000/svg" viewBox="0 0 147.13 29.09"><defs><style>.cls-1{fill:#fff;}.cls-2{fill:#892a81;}.cls-3{fill:#602483;}</style></defs><g id="Layer_2" data-name="Layer 2"><g id="Layer_1-2" data-name="Layer 1"><path class="cls-1" d="M38.36,20.62H34.63v4.63H31.21V12.88h8.28v2.95H34.63v2h3.73Z" transform="translate(0 -0.48)"/><path class="cls-1" d="M45.1,16.13v3.62a1.15,1.15,0,0,0-.59-.2c-.57,0-.86.47-.86,1.41v4.29H40.52V20.31a4.67,4.67,0,0,1,1-3.12A3.31,3.31,0,0,1,44.15,16,5.57,5.57,0,0,1,45.1,16.13Z" transform="translate(0 -0.48)"/><path class="cls-1" d="M54.24,21.28H49.49a2.8,2.8,0,0,1-.11-.71,2.68,2.68,0,0,1,.15-.89h1.6c-.12-.67-.47-1-1.05-1a1.13,1.13,0,0,0-1,.54,2.44,2.44,0,0,0-.37,1.38A2.57,2.57,0,0,0,49.11,22a1.08,1.08,0,0,0,.93.54,1.21,1.21,0,0,0,.91-.51l1.78,2.32a4.23,4.23,0,0,1-5.9-.29,4.7,4.7,0,0,1-1.26-3.34,4.73,4.73,0,0,1,1.27-3.35A4.15,4.15,0,0,1,50,16,4,4,0,0,1,53,17.35a4.67,4.67,0,0,1,1.24,3.3C54.28,20.78,54.27,21,54.24,21.28Z" transform="translate(0 -0.48)"/><path class="cls-1" d="M60.69,12.88h3.14v7.53a5.39,5.39,0,0,1-1,3.38,4.23,4.23,0,0,1-6.45.28,4.65,4.65,0,0,1-1.29-3.33,4.74,4.74,0,0,1,1.28-3.31,4,4,0,0,1,3-1.39c.18,0,.46,0,.83.05v3.73a1.2,1.2,0,0,0-.77-.32,1.1,1.1,0,0,0-.83.38,1.36,1.36,0,0,0-.35.93,1.25,1.25,0,0,0,.36.9,1.16,1.16,0,0,0,.86.38c.81,0,1.21-.6,1.21-1.8Z" transform="translate(0 -0.48)"/><path class="cls-1" d="M66.56,29.21V26.26a2.69,2.69,0,0,0,1.12.29c1,0,1.67-.62,2-1.85a3,3,0,0,1-1.61.52,2.34,2.34,0,0,1-1.92-.94,3.63,3.63,0,0,1-.76-2.38V16.22h3.14v4.85c0,.54.2.81.62.81s.59-.3.59-.89V16.22h3.14v8.06a5.45,5.45,0,0,1-1.17,3.64,4.31,4.31,0,0,1-3.39,1.65A4.52,4.52,0,0,1,66.56,29.21Z" transform="translate(0 -0.48)"/><path class="cls-1" d="M84.59,12.83v3.52a1.82,1.82,0,0,0-.57-.13.83.83,0,0,0-.66.31,1,1,0,0,0-.28.74,2.14,2.14,0,0,0,.3.94l.26.49a5.42,5.42,0,0,1,.71,2.55,4.29,4.29,0,0,1-1.19,3.06,3.86,3.86,0,0,1-2.9,1.25,3.57,3.57,0,0,1-1.62-.41V21.57a1.61,1.61,0,0,0,.86.34,1.06,1.06,0,0,0,.74-.28.89.89,0,0,0,.3-.69,3.7,3.7,0,0,0-.48-1.19,6.16,6.16,0,0,1-.76-2.9,4.31,4.31,0,0,1,1.15-3,3.62,3.62,0,0,1,2.76-1.26A3.87,3.87,0,0,1,84.59,12.83Z" transform="translate(0 -0.48)"/><path class="cls-1" d="M89.22,16.22v9H86.08v-9Zm-1.56-4a1.49,1.49,0,0,1,1.1.48,1.63,1.63,0,0,1,.47,1.15A1.61,1.61,0,0,1,88.79,15a1.64,1.64,0,0,1-2.26,0,1.61,1.61,0,0,1-.44-1.16,1.63,1.63,0,0,1,.47-1.15A1.47,1.47,0,0,1,87.66,12.19Z" transform="translate(0 -0.48)"/><path class="cls-1" d="M96.3,16.34v3.57a1.18,1.18,0,0,0-.9.27,1.86,1.86,0,0,0-.32,1.06,4.53,4.53,0,0,1-1.88,3.69,4.59,4.59,0,0,1-2.5.56h-.43V21.91h.14a1.49,1.49,0,0,0,1.08-.34,1.92,1.92,0,0,0,.37-1.19,9,9,0,0,1,.24-1.95,2.81,2.81,0,0,1,.7-1.12,3.38,3.38,0,0,1,2.56-1Z" transform="translate(0 -0.48)"/><path class="cls-1" d="M97.33,16.34h3.13v4.87a2,2,0,0,0,.11.79.41.41,0,0,0,.4.22c.35,0,.53-.33.53-1V16.34h3.13v4.87a2,2,0,0,0,.11.79.41.41,0,0,0,.4.22c.35,0,.52-.33.52-1V16.34h3.14v5.57a3.76,3.76,0,0,1-1,2.58,3,3,0,0,1-2.3,1.07,3.3,3.3,0,0,1-2.5-1.27,3.49,3.49,0,0,1-2.46,1.27,3,3,0,0,1-2.52-1.23,4.58,4.58,0,0,1-.74-2.8Z" transform="translate(0 -0.48)"/><path class="cls-1" d="M115.28,21.86v3.51a3.68,3.68,0,0,1-.7.07,4.16,4.16,0,0,1-3.15-1.34,4.72,4.72,0,0,1-1.26-3.36,4.78,4.78,0,0,1,1.27-3.34,4.41,4.41,0,0,1,6.29-.08,5,5,0,0,1,1.17,3.5v4.43h-3.13V21.06a1.84,1.84,0,0,0-.33-1.14,1,1,0,0,0-.86-.42,1.14,1.14,0,0,0-.86.39,1.4,1.4,0,0,0,0,1.84,1,1,0,0,0,.83.37A1.32,1.32,0,0,0,115.28,21.86Z" transform="translate(0 -0.48)"/><path class="cls-1" d="M128.19,25.25h-3.14v-5.1q0-.78-.6-.78c-.39,0-.58.26-.58.78v5.1h-3.14v-5a4.29,4.29,0,0,1,1.08-3A3.42,3.42,0,0,1,124.46,16a3.46,3.46,0,0,1,2.88,1.4,4.91,4.91,0,0,1,.85,3.05Z" transform="translate(0 -0.48)"/><path class="cls-1" d="M135.23,16.44v8.81h-3.41V16.44h-2.6V12.88h8.61v3.56Z" transform="translate(0 -0.48)"/><path class="cls-1" d="M142.82,16a4,4,0,0,1,3,1.38,4.7,4.7,0,0,1,1.27,3.31,4.68,4.68,0,0,1-1.28,3.33,4.19,4.19,0,0,1-6.22,0,4.7,4.7,0,0,1-1.29-3.33,4.68,4.68,0,0,1,1.29-3.34A4.23,4.23,0,0,1,142.82,16Zm-.09,3.34a1.1,1.1,0,0,0-.85.39,1.47,1.47,0,0,0,0,1.93,1.11,1.11,0,0,0,1.71,0,1.4,1.4,0,0,0,.36-1,1.44,1.44,0,0,0-.35-1A1.14,1.14,0,0,0,142.73,19.37Z" transform="translate(0 -0.48)"/><polyline class="cls-2" points="26.74 24.82 3.77 28.89 0 4.07"/><polyline class="cls-3" points="0 4.07 22.97 0 26.74 24.82"/><path class="cls-1" d="M12.66,3.3c-.16.71-.53,1.09-1.12,1.14-.92.09-1.74.2-2.47.31a12.84,12.84,0,0,0-2.32.63A7.26,7.26,0,0,0,4.57,6.6c0,.22-.08.47-.13.75s-.09.52-.11.71a4.28,4.28,0,0,0,0,.65c0,.33,0,.62,0,.88v.6a36.3,36.3,0,0,1,7.49-2.38c.29.1.43.45.43,1-.06.38-.09.61-.11.69a.69.69,0,0,1-.15.25,2.42,2.42,0,0,1-.5.37,7.54,7.54,0,0,1-1.33.64l-2,.77a16.08,16.08,0,0,0-2.16,1,9,9,0,0,0-1.79,1.34A20.23,20.23,0,0,0,4,16.4c0,.63,0,1.34.06,2.15a1.58,1.58,0,0,1-.83,1.3,1.3,1.3,0,0,1-.54.11c-.45,0-.67-.19-.67-.57S2,18.34,2,17.63c0-1.33,0-2.6.16-3.83s.17-2.41.24-3.86.13-2.56.19-3.32a1.37,1.37,0,0,1-.69-1A2.69,2.69,0,0,1,2,4.82a1.31,1.31,0,0,1,.54-.64,4,4,0,0,1,.67-.35c.87-.3,1.65-.56,2.35-.77S7,2.63,7.74,2.44,9.19,2.09,9.86,2A10.56,10.56,0,0,1,11.7,1.8a3.72,3.72,0,0,1,.55,0c.31.12.47.42.47.9A2.83,2.83,0,0,1,12.66,3.3Z" transform="translate(0 -0.48)"/><path class="cls-1" d="M26.74,19.44a4.32,4.32,0,0,1,.14,1.08,4.48,4.48,0,0,1-.22,1.39,5.84,5.84,0,0,1-.6,1.29,5.92,5.92,0,0,1-.83,1,11,11,0,0,1-3.09,2.14,7.93,7.93,0,0,1-3.26.79A4,4,0,0,1,16,26.11a2.28,2.28,0,0,1-.77-1.6,2.22,2.22,0,0,1,.36-1.17c.27-.44.53-.66.8-.66a.58.58,0,0,1,.44.19c.12.13.32.35.6.69a2,2,0,0,0,1.53.88A5.21,5.21,0,0,0,20.69,24a13.91,13.91,0,0,0,1.64-.75,7.59,7.59,0,0,0,1.44-1.06A8.21,8.21,0,0,0,25,20.7a.77.77,0,0,0-.6-.76,7.68,7.68,0,0,0-1.61-.25l-.69,0a12.35,12.35,0,0,0-1.52.08c-.47.05-1.1.13-1.87.25L17,20.24a12.27,12.27,0,0,1-1.24.06,1.09,1.09,0,0,1-.8-.51,3.17,3.17,0,0,1-.54-1.14,7.75,7.75,0,0,1-.29-1.78,1.82,1.82,0,0,1,.24-1c.57-.85,1-1.48,1.35-1.91a9.6,9.6,0,0,1,1.1-1.2,10.72,10.72,0,0,1,1.52-1.12,14,14,0,0,1,2.51-1.26A6.79,6.79,0,0,1,23.15,10a7.44,7.44,0,0,1,1.67.18c.33.06.49.36.49.9a3.62,3.62,0,0,1-.17,1,3.36,3.36,0,0,1-.4.91c-.28.43-.47.64-.57.64s-.11-.07-.2-.21a1.65,1.65,0,0,0-.33-.37,1.28,1.28,0,0,0-.59-.19l-.43,0a6.69,6.69,0,0,0-1.85.29,5.11,5.11,0,0,0-1.78,1c-.63.53-1.09.94-1.39,1.23a4.47,4.47,0,0,0-.76,1,2.57,2.57,0,0,0-.33,1.21c0,.14.19.22.45.22a7.38,7.38,0,0,0,1.46-.3A11.72,11.72,0,0,1,20,17.07c.75-.07,1.48-.11,2.2-.11a8.18,8.18,0,0,1,2.59.29A3.16,3.16,0,0,1,26.74,19.44Z" transform="translate(0 -0.48)"/></g></g></svg>