<svg xmlns="http://www.w3.org/2000/svg" viewBox="0 0 26.88 28.89"><defs><style>.cls-1{fill:#892a81;}.cls-2{fill:#602483;}.cls-3{fill:#fff;}</style></defs><g id="Layer_2" data-name="Layer 2"><g id="Layer_1-2" data-name="Layer 1"><polyline class="cls-1" points="26.74 24.82 3.77 28.89 0 4.07"/><polyline class="cls-2" points="0 4.07 22.97 0 26.74 24.82"/><path class="cls-3" d="M12.66,3.3c-.16.71-.53,1.09-1.12,1.14-.92.09-1.74.2-2.47.31a12.84,12.84,0,0,0-2.32.63A7.26,7.26,0,0,0,4.57,6.6c0,.22-.08.47-.13.75s-.09.52-.11.71a4.28,4.28,0,0,0,0,.65c0,.33,0,.62,0,.88v.6a36.3,36.3,0,0,1,7.49-2.38c.29.1.43.45.43,1-.06.38-.09.61-.11.69a.69.69,0,0,1-.15.25,2.75,2.75,0,0,1-.5.37,7.91,7.91,0,0,1-1.33.64l-2,.77a16.84,16.84,0,0,0-2.17,1,9.23,9.23,0,0,0-1.78,1.34A20.23,20.23,0,0,0,4,16.4c0,.63,0,1.34.06,2.15a1.58,1.58,0,0,1-.83,1.3,1.33,1.33,0,0,1-.54.11c-.45,0-.67-.19-.67-.57S2,18.34,2,17.63c0-1.33,0-2.6.16-3.83s.17-2.41.24-3.86.13-2.56.19-3.32a1.39,1.39,0,0,1-.7-1A2.79,2.79,0,0,1,2,4.82a1.31,1.31,0,0,1,.54-.64,4,4,0,0,1,.67-.35c.87-.3,1.65-.56,2.35-.77S7,2.63,7.74,2.44,9.19,2.09,9.86,2A10.56,10.56,0,0,1,11.7,1.8a3.72,3.72,0,0,1,.55,0c.31.12.47.42.47.9A2.83,2.83,0,0,1,12.66,3.3Z" transform="translate(0 -0.48)"/><path class="cls-3" d="M26.74,19.44a4.32,4.32,0,0,1,.14,1.08,4.42,4.42,0,0,1-.22,1.38,5.71,5.71,0,0,1-.6,1.3,5.92,5.92,0,0,1-.83,1,11,11,0,0,1-3.09,2.13,7.8,7.8,0,0,1-3.26.8A4,4,0,0,1,16,26.11a2.28,2.28,0,0,1-.77-1.6,2.22,2.22,0,0,1,.36-1.17c.27-.44.53-.66.8-.66a.58.58,0,0,1,.44.19q.18.18.6.69a2,2,0,0,0,1.52.88A5.1,5.1,0,0,0,20.68,24a14.08,14.08,0,0,0,1.65-.75,7.59,7.59,0,0,0,1.44-1.06A7.79,7.79,0,0,0,25,20.7a.75.75,0,0,0-.59-.76,7.68,7.68,0,0,0-1.61-.25,6.26,6.26,0,0,0-.69,0,12.35,12.35,0,0,0-1.52.08c-.47.05-1.1.13-1.87.25s-1.36.19-1.76.23a9.86,9.86,0,0,1-1.24.07,1.09,1.09,0,0,1-.8-.51,3.25,3.25,0,0,1-.54-1.14,7.75,7.75,0,0,1-.29-1.78,1.82,1.82,0,0,1,.24-1c.57-.85,1-1.48,1.35-1.91a8.89,8.89,0,0,1,1.1-1.2,10.72,10.72,0,0,1,1.52-1.12,14,14,0,0,1,2.51-1.26A6.79,6.79,0,0,1,23.15,10a7.44,7.44,0,0,1,1.67.18c.33.06.49.36.49.9a3.62,3.62,0,0,1-.17,1,3.36,3.36,0,0,1-.4.91c-.28.42-.47.64-.57.64s-.11-.07-.2-.21a1.48,1.48,0,0,0-.34-.37,1.1,1.1,0,0,0-.58-.19,2.32,2.32,0,0,0-.43,0,6.69,6.69,0,0,0-1.85.29,5.11,5.11,0,0,0-1.78,1c-.63.53-1.09.94-1.39,1.23a4.47,4.47,0,0,0-.76,1,2.57,2.57,0,0,0-.33,1.21c0,.14.19.22.45.22a7.38,7.38,0,0,0,1.46-.3A11.72,11.72,0,0,1,20,17.07c.75-.07,1.48-.11,2.2-.11a8.25,8.25,0,0,1,2.59.28A3.2,3.2,0,0,1,26.74,19.44Z" transform="translate(0 -0.48)"/></g></g></svg>